<mxfile host="app.diagrams.net" agent="Mozilla/5.0 (Windows NT 10.0; Win64; x64) AppleWebKit/537.36 (KHTML, like Gecko) Chrome/129.0.0.0 Safari/537.36 Edg/129.0.0.0" version="24.7.16">
  <diagram name="Страница — 1" id="HvPTwDdYWqYVR5o8-KQh">
    <mxGraphModel dx="1158" dy="682" grid="1" gridSize="10" guides="1" tooltips="1" connect="1" arrows="1" fold="1" page="1" pageScale="1" pageWidth="827" pageHeight="1169" math="0" shadow="0">
      <root>
        <mxCell id="0" />
        <mxCell id="1" parent="0" />
        <mxCell id="3ovc-Z78xleEpdt2jm7j-1" value="Администратор" style="shape=umlActor;verticalLabelPosition=bottom;verticalAlign=top;html=1;outlineConnect=0;" vertex="1" parent="1">
          <mxGeometry x="400" y="360" width="40" height="80" as="geometry" />
        </mxCell>
        <mxCell id="3ovc-Z78xleEpdt2jm7j-2" value="Военные предст&lt;span style=&quot;background-color: initial;&quot;&gt;авители&lt;/span&gt;" style="shape=umlActor;verticalLabelPosition=bottom;verticalAlign=top;html=1;outlineConnect=0;" vertex="1" parent="1">
          <mxGeometry x="680" y="520" width="40" height="80" as="geometry" />
        </mxCell>
        <mxCell id="3ovc-Z78xleEpdt2jm7j-3" value="Представитель отдела&amp;nbsp; по управлению частями" style="shape=umlActor;verticalLabelPosition=bottom;verticalAlign=top;html=1;outlineConnect=0;" vertex="1" parent="1">
          <mxGeometry x="120" y="520" width="40" height="80" as="geometry" />
        </mxCell>
        <mxCell id="3ovc-Z78xleEpdt2jm7j-8" value="Представитель отдела по снабжению" style="shape=umlActor;verticalLabelPosition=bottom;verticalAlign=top;html=1;outlineConnect=0;" vertex="1" parent="1">
          <mxGeometry x="399" y="40" width="41" height="80" as="geometry" />
        </mxCell>
        <mxCell id="3ovc-Z78xleEpdt2jm7j-69" value="&quot;включ&quot;" style="rounded=0;orthogonalLoop=1;jettySize=auto;html=1;entryX=0;entryY=0.5;entryDx=0;entryDy=0;dashed=1;" edge="1" parent="1" source="3ovc-Z78xleEpdt2jm7j-9" target="3ovc-Z78xleEpdt2jm7j-68">
          <mxGeometry relative="1" as="geometry" />
        </mxCell>
        <mxCell id="3ovc-Z78xleEpdt2jm7j-84" value="&quot;включ&quot;" style="rounded=0;orthogonalLoop=1;jettySize=auto;html=1;exitX=1;exitY=0;exitDx=0;exitDy=0;entryX=0;entryY=1;entryDx=0;entryDy=0;dashed=1;" edge="1" parent="1" source="3ovc-Z78xleEpdt2jm7j-9" target="3ovc-Z78xleEpdt2jm7j-83">
          <mxGeometry relative="1" as="geometry" />
        </mxCell>
        <mxCell id="3ovc-Z78xleEpdt2jm7j-9" value="Управление снабжением и вооружением" style="ellipse;whiteSpace=wrap;html=1;" vertex="1" parent="1">
          <mxGeometry x="359.5" y="210" width="120" height="80" as="geometry" />
        </mxCell>
        <mxCell id="3ovc-Z78xleEpdt2jm7j-10" value="1" style="endArrow=none;html=1;rounded=0;exitX=0.5;exitY=0;exitDx=0;exitDy=0;exitPerimeter=0;entryX=0.5;entryY=1;entryDx=0;entryDy=0;" edge="1" parent="1" source="3ovc-Z78xleEpdt2jm7j-1" target="3ovc-Z78xleEpdt2jm7j-9">
          <mxGeometry width="50" height="50" relative="1" as="geometry">
            <mxPoint x="350" y="340" as="sourcePoint" />
            <mxPoint x="400" y="290" as="targetPoint" />
          </mxGeometry>
        </mxCell>
        <mxCell id="3ovc-Z78xleEpdt2jm7j-11" value="1" style="endArrow=none;html=1;rounded=0;entryX=0.5;entryY=0;entryDx=0;entryDy=0;" edge="1" parent="1" source="3ovc-Z78xleEpdt2jm7j-8" target="3ovc-Z78xleEpdt2jm7j-9">
          <mxGeometry width="50" height="50" relative="1" as="geometry">
            <mxPoint x="350" y="340" as="sourcePoint" />
            <mxPoint x="400" y="290" as="targetPoint" />
          </mxGeometry>
        </mxCell>
        <mxCell id="3ovc-Z78xleEpdt2jm7j-66" value="&quot;включ&quot;" style="rounded=0;orthogonalLoop=1;jettySize=auto;html=1;dashed=1;" edge="1" parent="1" source="3ovc-Z78xleEpdt2jm7j-13" target="3ovc-Z78xleEpdt2jm7j-65">
          <mxGeometry relative="1" as="geometry" />
        </mxCell>
        <mxCell id="3ovc-Z78xleEpdt2jm7j-87" value="&quot;включ&quot;" style="rounded=0;orthogonalLoop=1;jettySize=auto;html=1;entryX=0.5;entryY=1;entryDx=0;entryDy=0;dashed=1;exitX=0.5;exitY=0;exitDx=0;exitDy=0;" edge="1" parent="1" source="3ovc-Z78xleEpdt2jm7j-13" target="3ovc-Z78xleEpdt2jm7j-86">
          <mxGeometry relative="1" as="geometry" />
        </mxCell>
        <mxCell id="3ovc-Z78xleEpdt2jm7j-92" value="&quot;включ&quot;" style="rounded=0;orthogonalLoop=1;jettySize=auto;html=1;exitX=0;exitY=0;exitDx=0;exitDy=0;entryX=1;entryY=1;entryDx=0;entryDy=0;dashed=1;" edge="1" parent="1" source="3ovc-Z78xleEpdt2jm7j-13" target="3ovc-Z78xleEpdt2jm7j-91">
          <mxGeometry relative="1" as="geometry" />
        </mxCell>
        <mxCell id="3ovc-Z78xleEpdt2jm7j-95" value="&quot;включ&quot;" style="rounded=0;orthogonalLoop=1;jettySize=auto;html=1;entryX=0.5;entryY=0;entryDx=0;entryDy=0;dashed=1;" edge="1" parent="1" source="3ovc-Z78xleEpdt2jm7j-13" target="3ovc-Z78xleEpdt2jm7j-94">
          <mxGeometry relative="1" as="geometry" />
        </mxCell>
        <mxCell id="3ovc-Z78xleEpdt2jm7j-13" value="Управление частями" style="ellipse;whiteSpace=wrap;html=1;" vertex="1" parent="1">
          <mxGeometry x="210" y="460" width="120" height="80" as="geometry" />
        </mxCell>
        <mxCell id="3ovc-Z78xleEpdt2jm7j-14" value="2" style="endArrow=none;html=1;rounded=0;entryX=0;entryY=1;entryDx=0;entryDy=0;entryPerimeter=0;exitX=1;exitY=0;exitDx=0;exitDy=0;" edge="1" parent="1" source="3ovc-Z78xleEpdt2jm7j-13" target="3ovc-Z78xleEpdt2jm7j-1">
          <mxGeometry width="50" height="50" relative="1" as="geometry">
            <mxPoint x="300" y="490" as="sourcePoint" />
            <mxPoint x="350" y="440" as="targetPoint" />
          </mxGeometry>
        </mxCell>
        <mxCell id="3ovc-Z78xleEpdt2jm7j-16" value="2" style="endArrow=none;html=1;rounded=0;exitX=1;exitY=0.3333333333333333;exitDx=0;exitDy=0;exitPerimeter=0;entryX=0;entryY=1;entryDx=0;entryDy=0;" edge="1" parent="1" source="3ovc-Z78xleEpdt2jm7j-3" target="3ovc-Z78xleEpdt2jm7j-13">
          <mxGeometry width="50" height="50" relative="1" as="geometry">
            <mxPoint x="300" y="490" as="sourcePoint" />
            <mxPoint x="350" y="440" as="targetPoint" />
          </mxGeometry>
        </mxCell>
        <mxCell id="3ovc-Z78xleEpdt2jm7j-40" style="rounded=0;orthogonalLoop=1;jettySize=auto;html=1;exitX=0.5;exitY=0;exitDx=0;exitDy=0;entryX=0.5;entryY=1;entryDx=0;entryDy=0;dashed=1;" edge="1" parent="1" source="3ovc-Z78xleEpdt2jm7j-17" target="3ovc-Z78xleEpdt2jm7j-22">
          <mxGeometry relative="1" as="geometry" />
        </mxCell>
        <mxCell id="3ovc-Z78xleEpdt2jm7j-41" value="&quot;включ&quot;" style="edgeLabel;html=1;align=center;verticalAlign=middle;resizable=0;points=[];" vertex="1" connectable="0" parent="3ovc-Z78xleEpdt2jm7j-40">
          <mxGeometry x="-0.2807" y="1" relative="1" as="geometry">
            <mxPoint as="offset" />
          </mxGeometry>
        </mxCell>
        <mxCell id="3ovc-Z78xleEpdt2jm7j-43" style="rounded=0;orthogonalLoop=1;jettySize=auto;html=1;exitX=0;exitY=1;exitDx=0;exitDy=0;entryX=0.5;entryY=0;entryDx=0;entryDy=0;dashed=1;" edge="1" parent="1" source="3ovc-Z78xleEpdt2jm7j-17" target="3ovc-Z78xleEpdt2jm7j-30">
          <mxGeometry relative="1" as="geometry" />
        </mxCell>
        <mxCell id="3ovc-Z78xleEpdt2jm7j-44" value="&quot;включ&quot;" style="edgeLabel;html=1;align=center;verticalAlign=middle;resizable=0;points=[];" vertex="1" connectable="0" parent="3ovc-Z78xleEpdt2jm7j-43">
          <mxGeometry x="-0.2953" y="-1" relative="1" as="geometry">
            <mxPoint as="offset" />
          </mxGeometry>
        </mxCell>
        <mxCell id="3ovc-Z78xleEpdt2jm7j-46" style="rounded=0;orthogonalLoop=1;jettySize=auto;html=1;entryX=0.5;entryY=0;entryDx=0;entryDy=0;dashed=1;exitX=0.5;exitY=1;exitDx=0;exitDy=0;" edge="1" parent="1" source="3ovc-Z78xleEpdt2jm7j-17" target="3ovc-Z78xleEpdt2jm7j-45">
          <mxGeometry relative="1" as="geometry" />
        </mxCell>
        <mxCell id="3ovc-Z78xleEpdt2jm7j-47" value="&quot;включ&quot;" style="edgeLabel;html=1;align=center;verticalAlign=middle;resizable=0;points=[];" vertex="1" connectable="0" parent="3ovc-Z78xleEpdt2jm7j-46">
          <mxGeometry x="-0.3552" y="2" relative="1" as="geometry">
            <mxPoint as="offset" />
          </mxGeometry>
        </mxCell>
        <mxCell id="3ovc-Z78xleEpdt2jm7j-48" value="&quot;включ&quot;" style="rounded=0;orthogonalLoop=1;jettySize=auto;html=1;dashed=1;" edge="1" parent="1" source="3ovc-Z78xleEpdt2jm7j-17" target="3ovc-Z78xleEpdt2jm7j-26">
          <mxGeometry relative="1" as="geometry" />
        </mxCell>
        <mxCell id="3ovc-Z78xleEpdt2jm7j-17" value="Управление информацией" style="ellipse;whiteSpace=wrap;html=1;" vertex="1" parent="1">
          <mxGeometry x="510" y="460" width="120" height="80" as="geometry" />
        </mxCell>
        <mxCell id="3ovc-Z78xleEpdt2jm7j-18" value="3" style="endArrow=none;html=1;rounded=0;entryX=1;entryY=1;entryDx=0;entryDy=0;entryPerimeter=0;exitX=0;exitY=0;exitDx=0;exitDy=0;" edge="1" parent="1" source="3ovc-Z78xleEpdt2jm7j-17" target="3ovc-Z78xleEpdt2jm7j-1">
          <mxGeometry width="50" height="50" relative="1" as="geometry">
            <mxPoint x="440" y="490" as="sourcePoint" />
            <mxPoint x="490" y="440" as="targetPoint" />
          </mxGeometry>
        </mxCell>
        <mxCell id="3ovc-Z78xleEpdt2jm7j-19" value="3" style="endArrow=none;html=1;rounded=0;entryX=0;entryY=0.3333333333333333;entryDx=0;entryDy=0;entryPerimeter=0;exitX=1;exitY=1;exitDx=0;exitDy=0;" edge="1" parent="1" source="3ovc-Z78xleEpdt2jm7j-17" target="3ovc-Z78xleEpdt2jm7j-2">
          <mxGeometry width="50" height="50" relative="1" as="geometry">
            <mxPoint x="590" y="570" as="sourcePoint" />
            <mxPoint x="640" y="520" as="targetPoint" />
          </mxGeometry>
        </mxCell>
        <mxCell id="3ovc-Z78xleEpdt2jm7j-22" value="Просмотр данных о технике" style="ellipse;whiteSpace=wrap;html=1;" vertex="1" parent="1">
          <mxGeometry x="530" y="370" width="100" height="50" as="geometry" />
        </mxCell>
        <mxCell id="3ovc-Z78xleEpdt2jm7j-26" value="Просмотр данных о вооружении" style="ellipse;whiteSpace=wrap;html=1;" vertex="1" parent="1">
          <mxGeometry x="660" y="410" width="100" height="50" as="geometry" />
        </mxCell>
        <mxCell id="3ovc-Z78xleEpdt2jm7j-30" value="Просмотр данных о видах войск" style="ellipse;whiteSpace=wrap;html=1;" vertex="1" parent="1">
          <mxGeometry x="460" y="585" width="100" height="50" as="geometry" />
        </mxCell>
        <mxCell id="3ovc-Z78xleEpdt2jm7j-45" value="Просмотр данных о частях" style="ellipse;whiteSpace=wrap;html=1;" vertex="1" parent="1">
          <mxGeometry x="560" y="640" width="100" height="50" as="geometry" />
        </mxCell>
        <mxCell id="3ovc-Z78xleEpdt2jm7j-65" value="Распоряжение войсками части" style="ellipse;whiteSpace=wrap;html=1;" vertex="1" parent="1">
          <mxGeometry x="350" y="535" width="100" height="50" as="geometry" />
        </mxCell>
        <mxCell id="3ovc-Z78xleEpdt2jm7j-68" value="Распоряжение военной техникой" style="ellipse;whiteSpace=wrap;html=1;" vertex="1" parent="1">
          <mxGeometry x="530" y="280" width="100" height="50" as="geometry" />
        </mxCell>
        <mxCell id="3ovc-Z78xleEpdt2jm7j-76" style="rounded=0;orthogonalLoop=1;jettySize=auto;html=1;exitX=0;exitY=0;exitDx=0;exitDy=0;entryX=0.5;entryY=1;entryDx=0;entryDy=0;dashed=1;" edge="1" parent="1" target="3ovc-Z78xleEpdt2jm7j-80" source="3ovc-Z78xleEpdt2jm7j-9">
          <mxGeometry relative="1" as="geometry">
            <mxPoint x="228" y="190" as="sourcePoint" />
          </mxGeometry>
        </mxCell>
        <mxCell id="3ovc-Z78xleEpdt2jm7j-77" value="&quot;включ&quot;" style="edgeLabel;html=1;align=center;verticalAlign=middle;resizable=0;points=[];" vertex="1" connectable="0" parent="3ovc-Z78xleEpdt2jm7j-76">
          <mxGeometry x="-0.2953" y="-1" relative="1" as="geometry">
            <mxPoint as="offset" />
          </mxGeometry>
        </mxCell>
        <mxCell id="3ovc-Z78xleEpdt2jm7j-78" style="rounded=0;orthogonalLoop=1;jettySize=auto;html=1;entryX=0.5;entryY=0;entryDx=0;entryDy=0;dashed=1;exitX=0;exitY=1;exitDx=0;exitDy=0;" edge="1" parent="1" target="3ovc-Z78xleEpdt2jm7j-81" source="3ovc-Z78xleEpdt2jm7j-9">
          <mxGeometry relative="1" as="geometry">
            <mxPoint x="270" y="202" as="sourcePoint" />
          </mxGeometry>
        </mxCell>
        <mxCell id="3ovc-Z78xleEpdt2jm7j-79" value="&quot;включ&quot;" style="edgeLabel;html=1;align=center;verticalAlign=middle;resizable=0;points=[];" vertex="1" connectable="0" parent="3ovc-Z78xleEpdt2jm7j-78">
          <mxGeometry x="-0.3552" y="2" relative="1" as="geometry">
            <mxPoint as="offset" />
          </mxGeometry>
        </mxCell>
        <mxCell id="3ovc-Z78xleEpdt2jm7j-93" value="&quot;расшир&quot;" style="rounded=0;orthogonalLoop=1;jettySize=auto;html=1;entryX=0.5;entryY=0;entryDx=0;entryDy=0;dashed=1;" edge="1" parent="1" source="3ovc-Z78xleEpdt2jm7j-80" target="3ovc-Z78xleEpdt2jm7j-91">
          <mxGeometry relative="1" as="geometry" />
        </mxCell>
        <mxCell id="3ovc-Z78xleEpdt2jm7j-80" value="Просмотр данных о видах войск" style="ellipse;whiteSpace=wrap;html=1;" vertex="1" parent="1">
          <mxGeometry x="230" y="150" width="100" height="50" as="geometry" />
        </mxCell>
        <mxCell id="3ovc-Z78xleEpdt2jm7j-81" value="Просмотр данных о частях" style="ellipse;whiteSpace=wrap;html=1;" vertex="1" parent="1">
          <mxGeometry x="250" y="300" width="100" height="50" as="geometry" />
        </mxCell>
        <mxCell id="3ovc-Z78xleEpdt2jm7j-83" value="Снабжение военнослужащих вооружением и питанием" style="ellipse;whiteSpace=wrap;html=1;" vertex="1" parent="1">
          <mxGeometry x="520" y="140" width="120" height="80" as="geometry" />
        </mxCell>
        <mxCell id="3ovc-Z78xleEpdt2jm7j-86" value="Создание новых частей" style="ellipse;whiteSpace=wrap;html=1;" vertex="1" parent="1">
          <mxGeometry x="259.5" y="380" width="100" height="50" as="geometry" />
        </mxCell>
        <mxCell id="3ovc-Z78xleEpdt2jm7j-91" value="Изменение вида войск военнослужащих" style="ellipse;whiteSpace=wrap;html=1;" vertex="1" parent="1">
          <mxGeometry x="100" y="390" width="120" height="70" as="geometry" />
        </mxCell>
        <mxCell id="3ovc-Z78xleEpdt2jm7j-94" value="Увольнение военнослужащих" style="ellipse;whiteSpace=wrap;html=1;" vertex="1" parent="1">
          <mxGeometry x="270" y="630" width="100" height="50" as="geometry" />
        </mxCell>
      </root>
    </mxGraphModel>
  </diagram>
</mxfile>
